<?xml version="1.0" encoding="UTF-8"?>
<svg id="Livello_2" data-name="Livello 2" xmlns="http://www.w3.org/2000/svg" viewBox="0 0 3000 3000">
  <defs>
    <style>
      .cls-1 {
        fill: #ffed00;
      }

      .cls-2 {
        fill: #7a7f7d;
      }

      .cls-3 {
        fill: #ec6608;
      }
    </style>
  </defs>
  <g>
    <path class="cls-3" d="M210.96,1121.1h133.85c77.93,0,133.99,15.28,168.18,45.85,34.18,30.57,51.28,69.46,51.28,116.68,0,50.99-24.92,91.99-74.75,122.98,56.49,22.31,84.74,64.75,84.74,127.33,0,50.12-17.53,90.54-52.58,121.25-35.06,30.71-81.26,46.06-138.63,46.06h-172.09v-580.15ZM342.63,1232.35v125.16c58.81-1.45,88.22-21.87,88.22-61.27,0-23.47-7.03-39.83-21.08-49.11-14.06-9.27-36.44-14.19-67.14-14.78ZM342.63,1462.67v125.59c33.31-.58,58.3-5.72,74.96-15.43,16.66-9.7,24.99-25.71,24.99-48.02,0-41.43-29.7-62.14-89.09-62.14h-10.86Z"/>
    <path class="cls-3" d="M849.78,1701.25v-52.58h-1.74c-15.36,22.6-30.2,39.26-44.54,49.98s-31.22,16.08-50.63,16.08c-37.96,0-68.23-19.41-90.83-58.23-22.6-38.82-33.9-91.54-33.9-158.18s11.44-115.01,34.33-152.97c22.88-37.95,53.02-56.93,90.39-56.93,19.99,0,36.94,5,50.84,14.99s28.39,26.01,43.46,48.02h1.74v-49.98h126.46v399.81h-125.59ZM849.78,1499.18c0-66.34-16.23-99.52-48.67-99.52s-49.11,33.18-49.11,99.52,16.95,103.43,50.84,103.43c31.29,0,46.93-34.47,46.93-103.43Z"/>
    <path class="cls-3" d="M1270.88,1088.94h125.59v612.31h-126.46v-52.58h-1.74c-28.1,44.04-59.83,66.05-95.17,66.05-37.09,0-67-19.41-89.74-58.23-22.75-38.82-34.11-90.68-34.11-155.58s11.58-116.17,34.77-154.71c23.17-38.53,53.74-57.8,91.69-57.8,34.47,0,66.2,19.85,95.17,59.54v-259ZM1270.88,1498.31c0-65.76-15.94-98.65-47.8-98.65s-49.11,34.92-49.11,104.73c0,31,4.41,54.97,13.25,71.92,8.83,16.95,21.08,25.42,36.72,25.42,14.48,0,25.92-8.98,34.33-26.94,8.4-17.96,12.6-43.46,12.6-76.48Z"/>
    <path class="cls-3" d="M1492.94,1181.51c0-18.54,6.52-34.33,19.56-47.37,13.04-13.04,28.68-19.56,46.93-19.56s34.33,6.52,47.37,19.56,19.56,28.83,19.56,47.37-6.52,33.97-19.56,47.15c-13.04,13.19-28.83,19.77-47.37,19.77s-33.54-6.59-46.72-19.77c-13.19-13.18-19.77-28.9-19.77-47.15ZM1496.42,1301.45h126.46v399.81h-126.46v-399.81Z"/>
    <path class="cls-3" d="M1921.43,1701.25v-52.58h-1.74c-15.36,22.6-30.2,39.26-44.54,49.98-14.34,10.71-31.22,16.08-50.63,16.08-37.96,0-68.23-19.41-90.83-58.23-22.6-38.82-33.9-91.54-33.9-158.18s11.44-115.01,34.33-152.97c22.88-37.95,53.02-56.93,90.39-56.93,19.99,0,36.94,5,50.84,14.99s28.39,26.01,43.46,48.02h1.74v-49.98h126.46v399.81h-125.59ZM1921.43,1499.18c0-66.34-16.23-99.52-48.67-99.52s-49.11,33.18-49.11,99.52,16.95,103.43,50.84,103.43c31.29,0,46.93-34.47,46.93-103.43Z"/>
  </g>
  <path class="cls-1" d="M1913.57,1107.41h0c-19.51-6.71-28.4-29.27-18.7-47.48,37.6-70.6,139.92-222.61,340.85-266.09,252.55-54.64,434.1,111.26,449.26,125.61,36.52,36.73,124.44,135.2,151.64,289.7,18.21,103.43,4.23,191.37-9.28,240.33-.35,1.26-.77,2.51-1.27,3.72-32.75,80.39-73.43,132.79-101.7,163.67-29.91,32.68-64.39,61.44-83.09,77.03-31.41,26.19-59.45,46.62-80.82,61.32-1.39.95-2.84,1.79-4.35,2.53-22.25,10.81-52.75,26.34-88.11,46.68-44.87,25.81-67.42,38.78-90.96,58.72-19.11,16.19-44.95,46.26-68.79,87.83-9.3,16.22-30.08,21.68-46.17,12.15l-2.13-1.26c-15.72-9.31-21.04-29.45-12.1-45.38,19.85-35.38,41.36-59.89,57.54-75.81,30.92-30.44,61.63-48.52,110.7-77.39,32.57-19.17,60.64-33.4,80.58-42.97,18.12-9.33,269.86-143.94,284.09-397.09,5.22-92.86-23.38-168.53-46.57-214.87-18.78-38.38-75.12-140.6-197.52-206.98-94.81-51.41-183.85-56.71-228.62-56.18-2.02.02-4.02.23-6,.61-46.5,9.02-132.32,32.27-217.98,98.33-65.66,50.63-106.52,107.36-130.59,148.44-8.09,13.8-24.75,20.02-39.87,14.82Z"/>
  <path class="cls-2" d="M1789.81,2228.32c9.99,12.7,25.54,29.33,48.11,43.9,37.86,24.43,75,29.82,94.58,31.21,1.8-.23,7.45-1.18,11.61-5.95,4.78-5.49,5.66-13.81,2.25-21.2-21.11-4.66-49.32-13.19-79.84-29.61-26.26-14.12-46.49-29.92-61.12-43.18-2.16.6-6.64,2.18-10.39,6.36-6.7,7.48-5.43,17.02-5.21,18.48Z"/>
  <path class="cls-2" d="M1793.05,2075.6c29.25,26.83,59.37,55.11,110.42,83.75,60.95,34.19,117.56,52.86,160.57,63.48,1.58,2.75,6.62,12.36,4.27,24.54-3.45,17.81-19.7,25.41-21.34,26.14-39.55-5.75-99.91-19.38-165.37-54.95-59.1-32.11-100.48-70.22-126.43-98.15-.73-2.39-1.53-5.88-1.62-10.12-.03-1.49-.12-12.36,5.93-21.12,6.8-9.85,19.85-14.88,33.56-13.57Z"/>
  <g>
    <path class="cls-2" d="M816.1,1810.28h19.53v166.99h-19.53v-13.67c-7.17,10.42-16.94,15.62-29.3,15.62-13.67,0-24.41-3.91-32.23-11.72-11.72-11.72-17.58-26.69-17.58-44.92,0-19.53,5.2-34.5,15.62-44.92,8.45-8.45,18.55-12.7,30.27-12.7,14.31,0,25.39,5.54,33.2,16.6v-71.29ZM768.25,1890.36c-6.52,6.52-9.77,17.26-9.77,32.23s3.57,25.07,10.74,32.23c4.55,4.56,10.09,6.84,16.6,6.84,7.81,0,14.31-2.59,19.53-7.81,7.16-7.16,10.74-17.58,10.74-31.25s-3.91-24.41-11.72-32.23c-5.22-5.2-11.4-7.81-18.55-7.81-6.52,0-12.38,2.61-17.58,7.81Z"/>
    <path class="cls-2" d="M874.69,1876.69c7.16-7.16,17.58-10.74,31.25-10.74,16.27,0,27.98,3.59,35.16,10.74,6.5,6.52,9.77,14.01,9.77,22.46v61.52c0,7.17,2.59,12.7,7.81,16.6h-23.44c-2.61-2.59-3.91-6.84-3.91-12.7-9.77,9.77-22.14,14.65-37.11,14.65-12.38,0-21.82-3.25-28.32-9.77-5.86-5.86-8.79-12.7-8.79-20.51,0-9.11,2.93-16.6,8.79-22.46,6.5-6.5,15.62-10.74,27.34-12.7,7.81-1.3,14.65-2.93,20.51-4.88,8.45-1.95,14.31-3.91,17.58-5.86,0-5.2-1.95-9.77-5.86-13.67s-9.45-5.86-16.6-5.86c-9.12,0-15.62,1.95-19.53,5.86-2.61,2.61-4.56,6.2-5.86,10.74h-21.48c1.95-9.11,6.18-16.92,12.7-23.44ZM931.34,1921.61c-3.91,1.31-7.49,2.29-10.74,2.93-11.08,2.61-19.53,4.56-25.39,5.86-5.22,1.31-9.12,3.27-11.72,5.86-3.27,3.27-4.88,6.84-4.88,10.74,0,4.56,1.62,8.47,4.88,11.72,1.95,1.95,6.18,2.93,12.7,2.93,11.06,0,20.17-3.57,27.34-10.74,4.55-4.55,7.16-7.81,7.81-9.77v-19.53Z"/>
    <path class="cls-2" d="M984.07,1810.28h19.53v166.99h-19.53v-166.99Z"/>
    <path class="cls-2" d="M1162.78,1807.35h11.72v168.95h-22.46v-129.88h-29.3v-11.72h8.79c9.11,0,16.27-2.59,21.48-7.81,5.86-5.86,9.11-12.36,9.77-19.53Z"/>
    <path class="cls-2" d="M1252.62,1819.07c7.16-7.16,16.92-10.74,29.3-10.74,11.72,0,21.8,4.24,30.27,12.7,13.67,13.67,20.51,37.45,20.51,71.29s-7.17,58.93-21.48,73.24c-9.12,9.12-19.87,13.67-32.23,13.67s-22.14-3.57-29.3-10.74c-8.47-8.45-12.7-19.53-12.7-33.2h22.46c-.66,8.47,1.95,15.62,7.81,21.48,2.59,2.61,6.5,3.91,11.72,3.91,5.86,0,11.06-2.27,15.62-6.84,10.41-10.41,15.62-29.62,15.62-57.62-2.61,3.91-5.54,7.49-8.79,10.74-7.17,7.17-15.96,10.74-26.37,10.74-9.77,0-17.91-3.25-24.41-9.77-10.42-10.41-15.62-24.41-15.62-41.99,0-19.53,5.86-35.16,17.58-46.88ZM1268.25,1831.76c-6.52,6.52-9.77,17.91-9.77,34.18,0,13.03,2.59,22.14,7.81,27.34,4.55,4.56,9.11,6.84,13.67,6.84,7.81,0,13.67-1.95,17.58-5.86,7.16-7.16,10.74-15.95,10.74-26.37,0-16.27-3.59-27.98-10.74-35.16-4.56-4.55-9.77-6.84-15.62-6.84-5.22,0-9.77,1.95-13.67,5.86Z"/>
    <path class="cls-2" d="M1383.48,1820.04c7.81-7.81,17.58-11.72,29.3-11.72,12.36,0,22.46,3.91,30.27,11.72,8.45,8.47,12.7,19.21,12.7,32.23h-22.46c0-9.11-1.95-15.62-5.86-19.53s-8.79-5.86-14.65-5.86-10.74,1.95-14.65,5.86c-10.42,10.42-15.62,28.66-15.62,54.69,2.59-4.55,5.86-8.79,9.77-12.7,5.86-5.86,13.02-8.79,21.48-8.79,11.72,0,21.48,3.91,29.3,11.72,9.77,9.77,14.65,24.41,14.65,43.95s-5.22,35.49-15.62,45.9c-7.81,7.81-18.55,11.72-32.23,11.72-11.72,0-22.46-4.88-32.23-14.65-11.72-11.72-17.58-34.18-17.58-67.38,0-35.8,7.81-61.52,23.44-77.15ZM1395.2,1890.36c-7.17,7.17-10.74,16.94-10.74,29.3,0,15.62,3.91,27.34,11.72,35.16,4.55,4.56,9.43,6.84,14.65,6.84,5.86,0,10.74-1.95,14.65-5.86,5.86-5.86,8.79-17.24,8.79-34.18,0-14.97-2.93-25.39-8.79-31.25-4.56-4.55-9.12-6.84-13.67-6.84-6.52,0-12.05,2.29-16.6,6.84Z"/>
    <path class="cls-2" d="M1508.48,1820.04c7.81-7.81,17.58-11.72,29.3-11.72,12.36,0,22.46,3.91,30.27,11.72,8.45,8.47,12.7,19.21,12.7,32.23h-22.46c0-9.11-1.95-15.62-5.86-19.53s-8.79-5.86-14.65-5.86-10.74,1.95-14.65,5.86c-10.42,10.42-15.62,28.66-15.62,54.69,2.59-4.55,5.86-8.79,9.77-12.7,5.86-5.86,13.02-8.79,21.48-8.79,11.72,0,21.48,3.91,29.3,11.72,9.77,9.77,14.65,24.41,14.65,43.95s-5.22,35.49-15.62,45.9c-7.81,7.81-18.55,11.72-32.23,11.72-11.72,0-22.46-4.88-32.23-14.65-11.72-11.72-17.58-34.18-17.58-67.38,0-35.8,7.81-61.52,23.44-77.15ZM1520.2,1890.36c-7.17,7.17-10.74,16.94-10.74,29.3,0,15.62,3.91,27.34,11.72,35.16,4.55,4.56,9.43,6.84,14.65,6.84,5.86,0,10.74-1.95,14.65-5.86,5.86-5.86,8.79-17.24,8.79-34.18,0-14.97-2.93-25.39-8.79-31.25-4.56-4.55-9.12-6.84-13.67-6.84-6.52,0-12.05,2.29-16.6,6.84Z"/>
  </g>
  <path class="cls-2" d="M1804.14,1958.88c44.26,34.04,98.54,70.99,163.12,106.03,66.67,36.17,124.68,56.14,178.69,74.89,11.52,12.67,14.09,30.62,6.67,44.49-8.51,15.91-26.1,18.88-28.18,19.2-50.79-9.99-122.5-29.97-200.19-72.58-71.07-38.98-123.07-83.68-157.93-118.63-.55-2.18-5.05-21.57,8.16-37.81,11.09-13.64,26.74-15.31,29.66-15.57Z"/>
  <path class="cls-2" d="M1844.92,1840.99c43.39,36.72,92.34,79.2,165.34,117.89,76.1,40.34,146.52,64.81,202.9,80.08,14.78,8.6,22.61,25.58,19.53,42.22-3.18,17.18-17.32,30.48-34.85,32.66-53.4-9.14-131.85-28.85-217.24-74.89-86.16-46.45-146.1-101.77-183.14-141.62-5.2-15.65-1.83-32.53,8.9-43.75,11.36-11.88,35.25-12.54,38.56-12.6Z"/>
</svg>